# xmcd
#
# Track frame offsets:
#	150
#	17935
#	28867
#	38805
#	61300
#	70005
#	81855
#	95100
#	111152
#	124020
#	140835
#	155995
#	179437
#	194880
#	209522
#	240377
#	255887
#	272317
#	285935
#	301510
#	319507
#
# Disc length: 4551 seconds
#
# Revision: 0
# Processed by: cddbd v1.5.2PL0 Copyright (c) Steve Scherf et al.
# Submitted via: EZCDAudioConverter 2.1.7.1
#
DISCID=2b11c515
DTITLE=V/A - Varèse Sarabande: A 25th Anniversary Celebration 1/3
DYEAR=2003
DGENRE=
TTITLE0=Bruce Rowland - The Man From Snowy River
TTITLE1=Robert Cobert - The Winds Of War
TTITLE2=Angelo Badalamenti - Blue Velvet
TTITLE3=Maurice Jarre - Witness
TTITLE4=Carter Burwell - Raising Arizona
TTITLE5=Danny Elfman - Pee Wee's Big Adventure
TTITLE6=John Carpenter - Halloween
TTITLE7=Charles Bernstein - A Nightmare On Elm Street
TTITLE8=Howard Shore - The Fly
TTITLE9=Basil Poledouris - Robocop
TTITLE10=John Williams - The Empire Strikes Back
TTITLE11=Bill Conti - The Right Stuff
TTITLE12=Jerry Goldsmith - The Final Conflict
TTITLE13=Alan Silvestri - The Abyss
TTITLE14=James Horner - Brainstorm
TTITLE15=John Barry - Peggy Sue Got Married
TTITLE16=Elmer Bernstein - My Left Foot
TTITLE17=Alex North - The Dead
TTITLE18=John Williams - Stanley and Iris
TTITLE19=Dave Grusin - The Milagro Beanfield War
TTITLE20=Hans Zimmer - Driving Miss Daisy
EXTD=
EXTT0=
EXTT1=
EXTT2=
EXTT3=
EXTT4=
EXTT5=
EXTT6=
EXTT7=
EXTT8=
EXTT9=
EXTT10=
EXTT11=
EXTT12=
EXTT13=
EXTT14=
EXTT15=
EXTT16=
EXTT17=
EXTT18=
EXTT19=
EXTT20=
PLAYORDER=
